Coordinates
version=1
nRows=4
nColumns=114
inDegrees=yes

Units are S.I. units (second, meters, Newtons, ...)
If the header above contains a line with 'inDegrees', this indicates whether rotational values are in degrees (yes) or radians (no).

endheader 
time	pelvis_tilt	pelvis_list	pelvis_rotation	pelvis_tx	pelvis_ty	pelvis_tz	hip_flexion_l	hip_adduction_l	hip_rotation_l	hip_flexion_r	hip_adduction_r	hip_rotation_r	knee_angle_l	knee_angle_r	ankle_angle_l	ankle_angle_r	subtalar_angle_l	subtalar_angle_r	mtp_angle_l	mtp_angle_r	lumbar_extension	lumbar_bending	lumbar_rotation	arm_flex_l	arm_add_l	arm_rot_l	arm_flex_r	arm_add_r	arm_rot_r	elbow_flex_l	elbow_flex_r	pro_sup_l	pro_sup_r	addbrev_l/activation	addlong_l/activation	addmagDist_l/activation	addmagIsch_l/activation	addmagMid_l/activation	addmagProx_l/activation	bflh_l/activation	bfsh_l/activation	edl_l/activation	ehl_l/activation	fdl_l/activation	fhl_l/activation	gaslat_l/activation	gasmed_l/activation	glmax1_l/activation	glmax2_l/activation	glmax3_l/activation	glmed1_l/activation	glmed2_l/activation	glmed3_l/activation	glmin1_l/activation	glmin2_l/activation	glmin3_l/activation	grac_l/activation	iliacus_l/activation	perbrev_l/activation	perlong_l/activation	piri_l/activation	psoas_l/activation	recfem_l/activation	sart_l/activation	semimem_l/activation	semiten_l/activation	soleus_l/activation	tfl_l/activation	tibant_l/activation	tibpost_l/activation	vasint_l/activation	vaslat_l/activation	vasmed_l/activation	addbrev_r/activation	addlong_r/activation	addmagDist_r/activation	addmagIsch_r/activation	addmagMid_r/activation	addmagProx_r/activation	bflh_r/activation	bfsh_r/activation	edl_r/activation	ehl_r/activation	fdl_r/activation	fhl_r/activation	gaslat_r/activation	gasmed_r/activation	glmax1_r/activation	glmax2_r/activation	glmax3_r/activation	glmed1_r/activation	glmed2_r/activation	glmed3_r/activation	glmin1_r/activation	glmin2_r/activation	glmin3_r/activation	grac_r/activation	iliacus_r/activation	perbrev_r/activation	perlong_r/activation	piri_r/activation	psoas_r/activation	recfem_r/activation	sart_r/activation	semimem_r/activation	semiten_r/activation	soleus_r/activation	tfl_r/activation	tibant_r/activation	tibpost_r/activation	vasint_r/activation	vaslat_r/activation	vasmed_r/activation	
          0.00000000	         11.01032799	         -8.26065825	        -13.92126321	          1.34420385	          0.92182295	          0.21504665	        -23.97947904	         -1.92948270	         -7.95696267	         21.90555315	         -2.84945282	         -1.45641884	         17.12453348	         46.43399787	         21.15037852	          3.93129988	         -3.12206942	        -21.46769985	          4.99599963	        -24.40491971	        -19.89778755	          2.71397445	         -2.29891752	         10.18695041	        -15.37415655	         22.42035853	          0.46857094	        -13.90122522	          5.62263015	         20.92606959	         32.14043005	         81.82570735	         84.01543487	          0.23637176	          0.99978817	          0.01090162	          0.01044151	          0.02877809	          0.01596137	          0.01028171	          0.31833817	          0.31480863	          0.21647085	          0.03004098	          0.01558251	          0.01306495	          0.17548124	          0.01017797	          0.01018203	          0.01015677	          0.01030420	          0.01024074	          0.01122590	          0.25206358	          0.01052933	          0.02155027	          0.04211037	          0.99988944	          0.01360486	          0.01181110	          0.24811151	          0.99910983	          0.40596950	          0.38350352	          0.01026598	          0.01038007	          0.01024353	          0.48831437	          0.45727175	          0.01815949	          0.01024975	          0.01007774	          0.01017806	          0.28435352	          0.33583342	          0.11271005	          0.09086435	          0.15939886	          0.04307390	          0.01412112	          0.01031993	          0.22259437	          0.11414155	          0.03664720	          0.02060100	          0.01007667	          0.01008863	          0.01052266	          0.01059806	          0.04735909	          0.48829905	          0.09809891	          0.01042785	          0.26276118	          0.08442501	          0.01109405	          0.01389685	          0.02658419	          0.03618798	          0.07276781	          0.03427491	          0.01040129	          0.01913189	          0.01020798	          0.13260478	          0.12587051	          0.01053127	          0.01324751	          0.12503789	          0.01871716	          0.05728052	          0.04411348	          0.05492107	
          0.01000000	         12.19064410	         -8.55453006	        -13.84089084	          1.34960533	          0.92552893	          0.22004456	        -26.03531727	         -2.18659212	         -9.63679316	         20.30515120	         -3.58439830	         -4.73072420	         17.92837428	         43.36099335	         22.53674912	          4.67844192	         -4.67178364	        -19.65974181	          4.36608173	        -21.50929531	        -21.18800437	          2.61387921	         -2.60547497	          9.25762867	        -15.90591449	         23.76210814	          2.01069167	        -13.55999419	          7.48164178	         22.29609387	         31.61133394	         82.35153781	         84.06141868	          0.19712456	          0.83329221	          0.01195899	          0.01191091	          0.02425637	          0.01399370	          0.01152920	          0.26639881	          0.26276761	          0.18109078	          0.02651141	          0.01423986	          0.01137980	          0.43888678	          0.01067681	          0.01066340	          0.01055363	          0.01206754	          0.01064451	          0.01038350	          0.22141935	          0.01193736	          0.01823694	          0.03586218	          0.83470086	          0.05647372	          0.02109107	          0.20691256	          0.83288684	          0.33836550	          0.32069293	          0.01188545	          0.01224388	          0.01015348	          0.40785580	          0.38129798	          0.01568542	          0.01124803	          0.01044507	          0.01095994	          0.23708971	          0.27994174	          0.09405788	          0.07579835	          0.13299217	          0.03674578	          0.07108198	          0.03245110	          0.19806149	          0.09992563	          0.03439209	          0.02126608	          0.01746540	          0.04614423	          0.06525421	          0.04308618	          0.03979307	          0.40698568	          0.08334631	          0.05040517	          0.21914602	          0.07229196	          0.07362238	          0.02289084	          0.02358015	          0.07470309	          0.11028575	          0.06749076	          0.01397510	          0.01618361	          0.01638010	          0.11070767	          0.10608157	          0.01075273	          0.04908966	          0.24481770	          0.01824548	          0.04781505	          0.03678923	          0.04582392	
          0.02000000	         12.87950765	         -8.55406895	        -13.40654170	          1.35461912	          0.92729790	          0.22454786	        -27.14161446	         -2.38510495	        -10.16817428	         19.40690193	         -4.17545325	         -7.12161473	         18.66319651	         40.65117260	         23.13003884	          4.99129639	         -5.28818349	        -19.21217127	          3.66095060	        -18.94564638	        -21.96397177	          2.39831356	         -3.14497792	          9.43813969	        -16.53886859	         26.19230913	          2.45608452	        -13.35985767	          8.32208003	         22.90592444	         31.26752579	         84.45899244	         86.58433173	          0.16439704	          0.69448112	          0.01131044	          0.01162911	          0.02045315	          0.01247909	          0.01588348	          0.29131441	          0.21925634	          0.15133780	          0.02670504	          0.01373620	          0.13837169	          0.68477381	          0.01158151	          0.01136906	          0.01067278	          0.11353964	          0.01242750	          0.01129928	          0.30062304	          0.01865829	          0.01609654	          0.03093012	          0.69594527	          0.10194918	          0.13055918	          0.17268533	          0.69427772	          0.48975706	          0.26969043	          0.02576113	          0.02852148	          0.12862813	          0.34653585	          0.31788258	          0.01414335	          0.01014756	          0.01004113	          0.01009996	          0.19771935	          0.23338528	          0.07850034	          0.06324842	          0.11098647	          0.03336613	          0.05975155	          0.23688076	          0.19374652	          0.10059341	          0.03199273	          0.02021281	          0.04516875	          0.03954636	          0.06414623	          0.03707592	          0.03341919	          0.33920801	          0.06995316	          0.25896647	          0.18275146	          0.06099608	          0.08131313	          0.08899862	          0.02084595	          0.07966899	          0.13230327	          0.32557101	          0.01758586	          0.01396272	          0.13709743	          0.09240171	          0.08892119	          0.01053413	          0.04178168	          0.24620908	          0.01699625	          0.03992676	          0.03068425	          0.03824113	
          0.03000000	         13.14168280	         -8.50893111	        -12.88196902	          1.35965805	          0.92742042	          0.22900566	        -27.71209663	         -2.69901208	        -10.32428343	         19.04187532	         -4.40524989	         -8.67378046	         19.01441465	         38.23954074	         23.13551894	          5.19620920	         -5.44410255	        -19.54074740	          2.09339613	        -16.68116725	        -22.28286939	          2.28595214	         -3.70347686	          9.97878471	        -17.00971247	         28.49011116	          2.27251792	        -13.26433916	          8.63659653	         23.05122531	         31.00432132	         86.41401014	         89.14871764	          0.13716359	          0.57884750	          0.01354062	          0.01451314	          0.01769255	          0.01282714	          0.01386123	          0.24308732	          0.18298365	          0.12652076	          0.03580318	          0.04676739	          0.53192256	          0.89088544	          0.01178504	          0.01198871	          0.01125752	          0.09506673	          0.01134697	          0.01069911	          0.25150870	          0.01648199	          0.01412634	          0.02642189	          0.58038678	          0.08780788	          0.14269520	          0.14416942	          0.57884043	          0.45247592	          0.22543009	          0.02170340	          0.02402662	          0.23407525	          0.33910718	          0.26501081	          0.02951649	          0.01679288	          0.01477367	          0.01582016	          0.16494343	          0.19461734	          0.06552404	          0.05277556	          0.09264906	          0.07058249	          0.04995815	          0.23142794	          0.18526875	          0.09772920	          0.03000366	          0.01893024	          0.04002238	          0.04417960	          0.05437507	          0.03125022	          0.02803105	          0.28272541	          0.05869179	          0.23121878	          0.15242183	          0.05150806	          0.11278578	          0.07915267	          0.01978295	          0.09803912	          0.14186118	          0.38232165	          0.15894307	          0.01329611	          0.32457563	          0.07706183	          0.07433088	          0.01035892	          0.03688925	          0.23263046	          0.01547703	          0.03335615	          0.02559778	          0.03192409	
